HIERARCHY
ROOT Hips
{
  OFFSET -1.0702 102.605 67.2322
  CHANNELS 6 Xposition Yposition Zposition Zrotation Xrotation Yrotation
  JOINT RightUpLeg
  {
    OFFSET -8.9458 -8.66707 0.101652
    CHANNELS 3 Zrotation Xrotation Yrotation
    JOINT RightLeg
    {
      OFFSET 0 -44.4227 1.3727
      CHANNELS 3 Zrotation Xrotation Yrotation
      JOINT RightFoot
      {
        OFFSET 0.253549 -42.0924 -1.46059
        CHANNELS 3 Zrotation Xrotation Yrotation
        JOINT RightToes
        {
          OFFSET 0.04 -4.41509 8.4991
          CHANNELS 3 Zrotation Xrotation Yrotation
          End Site
          {
            OFFSET -0.08 -0.137448 9.77979
          }
        }
      }
    }
  }
  JOINT Spine
  {
    OFFSET 0 11.8905 0
    CHANNELS 3 Zrotation Xrotation Yrotation
    JOINT Spine1
    {
      OFFSET 0 25.6574 0.127663
      CHANNELS 3 Zrotation Xrotation Yrotation
      JOINT HEad
      {
        OFFSET 0 8.73416 0.011341
        CHANNELS 3 Zrotation Xrotation Yrotation
        End Site
        {
          OFFSET -0.29 12.7742 2.51395
        }
      }
      JOINT LeftShoulder1
      {
        OFFSET 8.99 -0.362252 -0.22
        CHANNELS 3 Zrotation Xrotation Yrotation
        JOINT LeftArm
        {
          OFFSET 10.2827 -0.00337999 0.322123
          CHANNELS 3 Zrotation Xrotation Yrotation
          JOINT LeftForeArm
          {
            OFFSET 26.2597 0.099144 -1.42434
            CHANNELS 3 Zrotation Xrotation Yrotation
            JOINT LeftHand
            {
              OFFSET 22.0902 0.085362 1.02216
              CHANNELS 3 Zrotation Xrotation Yrotation
              End Site
              {
                OFFSET 13.419 -0.6 1.50291
              }
            }
          }
        }
      }
      JOINT RightShoulder
      {
        OFFSET -8.99 -0.362252 -0.22
        CHANNELS 3 Zrotation Xrotation Yrotation
        JOINT RightArm
        {
          OFFSET -10.2827 -0.00338 0.322123
          CHANNELS 3 Zrotation Xrotation Yrotation
          JOINT RightForeArm
          {
            OFFSET -26.364 0.099144 -1.42434
            CHANNELS 3 Zrotation Xrotation Yrotation
            JOINT RightHand
            {
              OFFSET -22.0324 0.085362 1.02216
              CHANNELS 3 Zrotation Xrotation Yrotation
              End Site
              {
                OFFSET -13.3284 -0.6 1.50291
              }
            }
          }
        }
      }
    }
  }
  JOINT LeftUpLeg
  {
    OFFSET 8.9458 -8.66707 0.101652
    CHANNELS 3 Zrotation Xrotation Yrotation
    JOINT LeftLeg
    {
      OFFSET 0 -44.4227 1.3727
      CHANNELS 3 Zrotation Xrotation Yrotation
      JOINT LeftFoot
      {
        OFFSET -0.253549 -42.0924 -1.46059
        CHANNELS 3 Zrotation Xrotation Yrotation
        JOINT LeftToes
        {
          OFFSET -0.04 -4.41509 8.4991
          CHANNELS 3 Zrotation Xrotation Yrotation
          End Site
          {
            OFFSET 0.08 -0.047448 9.77979
          }
        }
      }
    }
  }
}
MOTION
Frames:	21
Frame Time:	0.0333333
-16.9778 93.1021 53.5275 1.78068 3.60106 101.771 -25.4509 -0.979305 -21.6053 0.185573 44.1102 3.35048 19.6481 -24.8501 2.36041 -7.95139e-016 -2.98177e-016 3.18055e-015 2.71848 5.19393 2.4091 -7.61351 17.9694 4.54588 -8.62132 -24.7901 58.9052 -23.7855 2.05086 -3.31544 -27.0891 26.2286 -9.95841 -6.43212 -10.7128 -22.8312 16.195 0.127239 6.52109 29.3143 3.16939 5.43684 34.4964 0.459427 13.9582 -0.418499 0.29606 110.284 -10.9752 0.221587 -8.16431 19.3985 -20.4057 20.1859 -1.06606 50.5089 -9.32113 -12.8177 -15.7905 -0.402153 1.76556e-031 3.18055e-015 -3.18055e-015 
-15.9853 94.0909 53.2661 2.39759 3.52639 103.016 -26.0014 1.08744 -23.5313 0.563271 43.6617 5.95816 22.2606 -21.8063 2.01207 7.95139e-016 1.78906e-015 -3.18055e-015 3.89782 4.49143 2.98137 -9.88582 18.8518 5.87749 -7.98033 -25.1473 57.127 -24.8709 2.10299 -3.25639 -29.7224 16.7516 -8.90781 -5.53055 -7.721 -21.6098 24.2072 0.569447 8.31768 30.7928 3.37923 5.65176 39.0815 1.72082 10.9281 -6.24034 -1.69858 106.253 -16.9373 1.14553 -13.7291 18.4347 -17.5359 19.6252 -1.06736 46.528 -9.52471 -11.6508 -15.8272 -0.366399 -7.95139e-016 2.38542e-015 -0 
-14.4524 97.6268 53.063 3.15404 3.14076 104.798 -23.269 3.76637 -21.6245 0.0239883 39.2928 2.04367 23.6269 -10.971 -0.153046 1.59028e-015 -7.95139e-016 -3.18055e-015 3.74006 3.64689 3.29219 -8.28524 17.7792 5.63032 -9.53556 -21.7048 56.2611 -25.0275 2.02061 -2.96083 -36.4723 14.8122 -4.16818 -6.79933 -11.9108 -24.7164 31.8931 0.611483 7.65807 31.6919 3.50286 5.76149 43.4561 5.47967 3.63678 -6.21085 -1.67722 106.187 -18.8576 1.3964 -14.4844 16.0383 -13.099 15.2763 -0.577579 37.7962 -7.08991 -12.649 -9.589 0.268517 0 1.19271e-015 -0 
-13.0865 101.753 53.3121 2.90968 2.72164 105.99 -19.7851 4.00648 -17.9089 -0.656506 35.0327 -2.66878 16.2133 0.417631 -1.67436 -0 -1.68967e-015 -0 2.76089 2.04814 3.32896 -6.5277 16.439 5.05055 -10.5335 -18.1943 56.6454 -24.6731 1.89232 -2.61723 -41.5593 14.624 1.21001 -7.70267 -12.3501 -27.7026 24.6363 0.271149 6.7864 32.6819 3.65272 5.91026 45.0299 8.63242 -3.47206 -1.9599 -0.303799 108.686 -9.40535 0.443443 -11.9337 14.3706 -9.76249 11.7212 -0.146665 28.6328 -4.32763 -14.0766 2.36406 1.67917 -1.59028e-015 3.97569e-015 -3.18055e-015 
-12.1171 104.809 53.625 2.20739 2.64823 106.015 -18.5825 3.15143 -16.2695 -0.226928 32.1429 0.295058 10.5306 3.87338 -1.39964 -3.97569e-016 -8.54774e-015 -0 2.89959 0.507571 3.27103 -7.40841 15.5919 5.22903 -9.99611 -16.4395 57.3029 -24.335 1.86062 -2.57845 -44.4179 12.7415 6.10495 -4.88214 -6.61273 -30.3505 11.5599 -0.0265777 5.33585 32.7663 3.69248 5.99158 45.91 11.2999 -7.85714 -1.57002 -0.243126 111.848 1.16186 -0.108865 -8.86154 12.9532 -7.73507 11.1442 0.203388 21.5771 0.171795 -12.1974 13.1954 2.51798 -3.18055e-015 9.54166e-015 9.54166e-015 
-11.533 106.343 53.8859 2.30497 2.53106 106.278 -18.4685 3.53863 -17.119 0.506158 28.5936 5.93868 14.489 3.5517 -1.88931 -7.95139e-016 -1.76421e-015 7.95139e-016 4.01869 -0.151557 3.24351 -8.31939 16.0534 5.56609 -9.78005 -16.6624 57.0524 -23.9398 1.91813 -2.84448 -46.5908 12.3021 8.375 -1.22497 -0.823369 -33.2884 7.20266 -0.179259 2.90308 31.0471 3.45599 5.79357 46.4439 13.1227 -9.08653 -2.8128 -1.03871 115.765 2.49975 -0.0725353 -5.83022 12.1791 -6.7176 10.7215 0.0345187 18.5175 2.97952 -9.97329 15.9857 2.27531 -1.59028e-015 -4.77083e-015 -0 
-11.2741 106.462 54.3163 3.02466 2.22764 106.666 -17.7021 4.10473 -17.8908 0.51581 24.4315 6.18624 17.8084 6.05824 -2.6961 -5.93119e-032 2.13694e-015 1.59028e-015 4.97848 0.447047 3.3185 -8.16565 16.6554 5.78497 -10.1006 -17.4446 56.4557 -23.5214 1.94629 -3.02294 -47.5824 14.5375 7.54059 1.25027 2.41573 -35.4566 8.38428 -0.224562 2.50243 29.5976 3.22988 5.53653 43.7099 12.149 -7.48379 -0.158913 0.401956 118.934 -0.498174 -0.0458862 -5.48771 12.4972 -6.19107 11.3929 -0.45102 18.731 -2.09604 -11.9285 13.5603 2.49434 -3.18055e-015 3.18055e-015 6.36111e-015 
-11.2495 104.894 54.884 3.4826 2.15768 106.579 -17.3231 2.66265 -17.3781 0.111323 24.6658 2.95899 15.8979 5.31479 -2.30107 -0 -5.11871e-015 -0 5.17108 2.19747 3.33996 -7.89668 15.4319 5.84367 -9.73989 -17.2797 56.2711 -23.3067 1.93509 -3.03022 -47.3 14.9159 6.48789 3.84952 5.32749 -37.6545 8.47182 -0.171925 3.34371 28.9149 3.13935 5.45181 39.54 8.5333 -4.06478 3.11573 2.35781 118.216 -1.785 -0.0431903 -5.67752 12.842 -6.68367 12.7195 -0.516853 21.7494 -7.1857 -13.2396 8.75945 2.26828 3.18055e-015 -5.56597e-015 -3.18055e-015 
-11.4774 101.607 55.7008 3.62002 2.36919 107.229 -17.9356 0.0953578 -16.9155 0.013253 31.0992 1.84557 16.1855 -4.3988 -0.997387 -3.97569e-016 1.2424e-015 -0 4.35453 4.05679 3.01607 -7.52761 14.2182 5.30505 -9.02474 -18.1026 55.8111 -23.362 1.95199 -3.07528 -45.8732 14.3999 4.40661 4.27434 5.5478 -39.1594 9.08264 -0.181554 3.36386 28.0345 3.01981 5.32822 35.7452 3.61398 1.04342 5.64126 3.35926 114.295 -3.52847 -0.0480868 -5.27368 13.3109 -10.3445 12.4413 -0.292677 30.1802 -5.60418 -11.0051 -0.0992442 1.09753 1.59028e-015 -7.95139e-016 -3.18055e-015 
-11.9377 97.6617 56.6665 3.96968 2.10732 108.769 -18.5027 -1.52737 -18.2234 0.256791 38.5245 3.62744 17.346 -16.0185 0.653599 -1.59028e-015 -8.64713e-015 3.18055e-015 4.30281 5.09159 2.44354 -7.34712 15.3272 4.5931 -8.59483 -21.3704 54.741 -24.1428 2.04288 -3.21275 -41.4146 16.3362 -1.65533 2.20019 3.39484 -37.4974 11.3109 -0.221237 3.35485 28.3359 3.0186 5.2497 31.0135 -2.20983 7.89656 7.25597 3.28346 108.339 -8.52555 0.093483 -7.33901 15.1295 -15.7434 12.0884 -0.226592 40.687 -4.34918 -9.61697 -9.10834 0.246455 -3.97569e-016 1.98785e-015 -0 
-11.9587 95.705 57.2771 4.43966 1.50525 109.255 -18.3525 -1.41321 -19.9613 0.507064 40.8006 5.36985 16.1899 -21.2091 1.36763 -7.95139e-016 -6.83322e-015 -0 5.54035 4.72606 2.37328 -7.87577 17.2994 4.75779 -8.36611 -23.255 53.7841 -25.0032 2.11874 -3.27914 -37.0965 18.9923 -8.1347 2.06076 3.69341 -33.4954 15.6168 -0.0892176 4.93664 29.9905 3.24237 5.47348 29.2802 -5.6756 12.5932 0.808276 0.691048 101.942 -14.3831 0.79059 -12.3127 16.9413 -17.335 12.216 -0.321482 44.4066 -5.28382 -10.0249 -13.4668 -0.103485 7.95139e-016 1.98785e-016 -9.54166e-015 
-11.0082 97.3277 57.3313 4.44298 1.36629 108.295 -17.5 0.488311 -19.9396 0.586869 36.501 6.07538 16.3857 -18.1482 0.933253 -0 -7.40473e-015 -0 5.9754 2.80158 3.10683 -7.97983 18.0371 5.48114 -8.63319 -20.6922 53.6185 -24.6873 2.05036 -3.1247 -39.0405 20.2221 -8.63472 2.83854 5.131 -31.2918 21.9126 0.369205 7.52105 30.9457 3.40002 5.66991 33.7267 -4.56613 10.8455 -9.01722 -1.42063 98.9382 -17.5606 1.53744 -16.1319 16.3687 -13.6481 11.8469 -0.177951 38.6851 -4.41437 -11.1425 -11.7395 0.0369555 -3.97569e-016 -3.97569e-016 3.18055e-015 
-9.64603 101.237 57.0206 4.07952 1.35536 107.159 -16.0207 3.11201 -18.3623 0.405939 28.677 5.11768 17.7853 -7.56541 -0.628109 -8.00021e-032 2.88238e-015 1.59028e-015 5.41602 0.423911 3.72285 -6.40092 17.2209 5.60826 -9.50153 -16.0731 54.708 -24.315 1.95551 -2.89229 -43.8659 19.8281 -3.11627 2.16647 3.89891 -33.0103 23.6474 0.439996 7.68529 31.6329 3.49416 5.75243 39.1059 -0.903121 3.88383 -9.30535 -1.77444 100.705 -16.0685 1.2591 -15.082 14.8416 -8.85062 11.3785 0.094708 29.2127 -2.5678 -12.2489 -1.60201 1.05882 2.38542e-015 -3.97569e-015 3.18055e-015 
-8.62239 104.88 56.7874 3.46592 1.31908 105.973 -14.9928 4.45734 -16.9544 0.372563 21.8783 3.12139 17.7547 4.29399 -2.41054 -7.95139e-016 3.67752e-015 -7.95139e-016 4.78411 -1.14361 3.85293 -5.0193 15.5255 5.39523 -9.84268 -12.5003 56.3911 -24.6658 1.94838 -2.79973 -46.3926 17.4016 4.06089 1.50627 2.59868 -37.0552 17.0861 -0.0685743 5.05435 32.6852 3.64549 5.89117 41.6981 3.41711 -3.91131 -3.79815 -0.71768 104.521 -8.55423 0.39241 -11.8936 14.0042 -6.2596 12.3435 0.177953 22.127 -1.25266 -12.2948 10.7061 2.28223 1.59028e-015 1.59028e-015 -6.36111e-015 
-8.10764 106.804 56.7771 2.81977 1.56317 104.597 -15.1841 4.22236 -16.8377 0.719639 19.263 1.84731 16.5806 9.12892 -2.93022 -1.59028e-015 -1.68967e-015 1.59028e-015 4.61661 -1.9376 3.98956 -5.63432 14.474 5.6435 -9.25348 -11.1537 57.3476 -23.882 1.90302 -2.80586 -47.8001 14.303 8.7578 1.9439 2.76509 -40.9998 10.3107 -0.260594 2.62367 32.0341 3.57679 5.87178 44.489 7.34149 -9.67745 -2.46547 -0.488845 108.474 -0.322916 -0.0580461 -8.45171 13.1451 -5.01796 12.2034 -0.0903852 18.1918 1.49671 -10.4357 13.0248 2.13106 -1.59028e-015 -7.95139e-016 9.54166e-015 
-8.05592 107.178 56.8497 2.88961 1.66679 103.778 -15.3964 3.58485 -17.941 0.368604 20.5082 2.01861 15.5937 9.20573 -2.76271 7.95139e-016 -2.48481e-015 -1.59028e-015 5.10552 -1.76748 4.00154 -6.62509 14.7312 5.88106 -9.10494 -11.9972 57.7341 -22.0928 1.77846 -2.7442 -48.6532 13.6377 9.5605 2.74594 3.23203 -44.3564 9.75164 -0.279797 2.21818 30.0507 3.31645 5.66381 46.5208 9.65898 -12.0028 -4.32359 -1.52495 112.09 2.39914 -0.0747428 -6.26393 12.8289 -4.41522 10.9341 -0.318978 16.473 2.94641 -8.53918 10.5132 1.55836 3.97569e-015 -3.18055e-015 6.36111e-015 
-8.29317 106.051 56.9869 3.56714 1.63963 103.622 -15.5174 3.15188 -18.4063 -0.0393413 23.6232 1.94311 16.0305 7.23652 -2.57389 7.95139e-016 6.95746e-015 -0 5.26367 -0.380496 3.72537 -6.35518 14.8526 5.57151 -9.68022 -13.0186 57.9813 -21.2836 1.69642 -2.62065 -46.9717 15.2457 7.65827 3.85402 4.03278 -46.537 12.7706 -0.267894 3.11556 29.2426 3.2201 5.59806 44.6285 9.64843 -11.539 -5.04714 -2.09896 114.275 0.242017 -0.0553876 -6.11479 13.584 -5.16513 11.452 -0.204192 17.7746 0.943737 -9.12434 11.6942 1.75972 7.95139e-016 1.59028e-015 -0 
-8.58186 103.089 57.2172 3.75906 1.83472 103.67 -16.5022 2.57136 -19.6055 0.139104 27.9276 3.00435 17.4282 -1.41607 -1.51832 -7.95139e-016 -3.37934e-015 1.59028e-015 4.59975 1.07167 3.52713 -5.76637 13.9151 5.16867 -9.49965 -12.8897 57.6579 -21.2499 1.68697 -2.59342 -43.5713 16.8026 4.89164 4.19874 4.1944 -47.1313 14.1407 -0.200012 3.94073 29.0545 3.21552 5.6324 40.9512 7.65078 -9.911 -2.0733 -0.585084 114.125 -2.75594 -0.0407415 -5.73319 14.624 -7.49952 12.8227 0.212707 22.9504 -0.909057 -11.6656 7.80137 1.88352 -1.59028e-015 -1.59028e-015 -3.18055e-015 
-9.11838 98.9932 57.538 3.3376 1.72346 103.789 -17.78 0.781093 -21.3594 0.453325 33.842 5.14455 17.2183 -14.5575 0.429397 -1.59028e-015 7.95139e-016 -0 4.12572 2.16594 3.28747 -5.95297 13.0685 4.79517 -8.2138 -14.1037 57.2595 -21.8075 1.74518 -2.68643 -38.6941 16.7343 0.60173 3.6151 3.77165 -46.5868 13.3278 -0.146454 4.34225 28.896 3.16513 5.52977 36.3412 4.46167 -5.70018 2.26481 1.40398 110.355 -5.12183 -0.0233525 -5.97068 16.6029 -11.6025 14.4349 0.076772 31.8625 -2.61448 -14.2401 -5.04062 0.806374 -7.95139e-016 1.59028e-015 6.36111e-015 
-9.81714 95.6887 57.7612 3.22646 1.01138 103.816 -18.4483 -2.07786 -21.7973 0.615153 40.4168 6.0721 15.8221 -22.8622 1.57135 1.59028e-015 3.97569e-015 -0 4.30843 3.33529 2.84525 -5.86482 13.4304 4.23965 -7.11264 -17.7559 57.5221 -23.2211 1.88492 -2.87866 -34.3861 14.7637 -3.82527 5.78362 5.81455 -45.7771 16.1474 -0.114478 4.75752 29.9589 3.25938 5.52927 32.1289 0.780863 0.553369 -2.21741 -0.187731 103.37 -8.412 0.143817 -8.21284 19.5529 -15.9367 16.7174 -0.236726 40.6838 -4.85843 -14.3942 -13.3521 -0.174774 -4.41391e-032 3.97569e-016 6.36111e-015 
-9.6858 95.3637 57.6998 3.33099 0.764116 103.288 -18.757 -2.66004 -21.8634 0.733068 41.7004 6.80678 15.6924 -22.8757 1.55616 7.95139e-016 2.68359e-015 1.59028e-015 3.93866 3.35778 2.83939 -5.10393 14.3745 3.96946 -6.95469 -19.6047 57.7767 -23.7544 1.96931 -3.05159 -35.1257 13.9939 -5.44895 8.04315 8.26956 -44.2837 23.8887 0.000980106 5.51329 31.3015 3.44186 5.69521 33.2736 -1.63302 2.67363 -12.8017 -2.09082 98.2253 -13.9379 0.648097 -11.4068 20.1885 -16.1564 17.6 -0.238168 41.7668 -4.76937 -13.309 -12.704 -0.081732 -0 0 3.18055e-015 
